PathFileType	4	(X/Y/Z)	 s08c0303.trc
DataRate	CameraRate	NumFrames	NumMarkers	Units	OrigDataRate	OrigDataStartFrame	OrigNumFrames
200	200	4	50	mm	200	501	2000
Frame#	Time	racr			lacr			c7			jug			rlel			rdr			llel			ldr			s2			lic			ric			lasi			rasi			rpsi			lpsi			rgt			lgt			rth1			rth2			rth3			rth4			rlfc			rmfc			rsh1			rsh2			rsh3			rsh4			rlmal			rmmal			rcal			rtoe			rmt5			lth1			lth2			lth4			lth3			llfc			lmfc			llmal			lmmal			lcal			lmt5			lsh1			lsh2			lsh3			lsh4			ltoe			SBIKE			LBIKE			RBIKE			
		X1	Y1	Z1	X2	Y2	Z2	X3	Y3	Z3	X4	Y4	Z4	X5	Y5	Z5	X6	Y6	Z6	X7	Y7	Z7	X8	Y8	Z8	X9	Y9	Z9	X10	Y10	Z10	X11	Y11	Z11	X12	Y12	Z12	X13	Y13	Z13	X14	Y14	Z14	X15	Y15	Z15	X16	Y16	Z16	X17	Y17	Z17	X18	Y18	Z18	X19	Y19	Z19	X20	Y20	Z20	X21	Y21	Z21	X22	Y22	Z22	X23	Y23	Z23	X24	Y24	Z24	X25	Y25	Z25	X26	Y26	Z26	X27	Y27	Z27	X28	Y28	Z28	X29	Y29	Z29	X30	Y30	Z30	X31	Y31	Z31	X32	Y32	Z32	X33	Y33	Z33	X34	Y34	Z34	X35	Y35	Z35	X36	Y36	Z36	X37	Y37	Z37	X38	Y38	Z38	X39	Y39	Z39	X40	Y40	Z40	X41	Y41	Z41	X42	Y42	Z42	X43	Y43	Z43	X44	Y44	Z44	X45	Y45	Z45	X46	Y46	Z46	X47	Y47	Z47	X48	Y48	Z48	X49	Y49	Z49	X50	Y50	Z50	
501	2.5050	791.540674	1309.018306	6.007475	797.635096	1355.266884	-329.413308	775.097618	1394.636451	-154.186691	745.565799	1242.427432	-187.927460	610.479230	1082.559164	88.729139	776.947581	901.391736	-39.534063	679.111497	1131.992107	-475.485377	790.601483	888.634208	-410.885153	205.877245	1232.043506	-239.445432	388.968879	1207.521311	-365.851726	346.257079	1203.225993	-53.937018	386.004624	1147.630947	-327.630906	372.632893	1154.800067	-82.735742	239.724878	1265.173654	-183.444381	250.274514	1270.720338	-279.473586	258.330594	1113.398721	-36.626209	314.410121	1098.135573	-413.600300	354.088798	965.609385	-23.986877	419.501703	905.565626	-21.818593	446.608187	823.449329	-31.445290	450.571908	925.405518	-25.639403	508.168262	717.350247	-45.598551	503.810389	718.719491	-167.297857	432.626001	607.891495	-22.220796	420.062342	520.726294	-43.693866	366.076009	454.097708	-52.518171	447.962227	515.084617	-72.199222	310.367744	349.103377	-65.051722	NaN	NaN	NaN	228.547255	319.681058	-113.186222	526.751091	315.864266	-96.510954	435.013479	280.988441	-35.107926	379.129453	982.233744	-410.800165	438.984978	919.036081	-401.364505	466.038177	934.297297	-382.192273	461.486760	833.156742	-407.133859	480.033357	707.500431	-396.240112	461.341198	683.343525	-287.254895	120.372720	492.227084	-401.439253	153.331544	478.436796	-317.650422	70.682471	530.116653	-358.588477	122.005481	321.459333	-416.506705	376.098596	632.909396	-419.545676	315.554936	576.149314	-405.319908	230.484014	548.962481	-406.140082	328.042170	557.719235	-369.364001	188.632353	265.656943	-347.332428	-198.944481	921.096072	-222.373475	-7.563316	83.399260	-426.331454	-10.451388	79.965216	-28.187100	
502	2.5100	794.431507	1310.112632	3.439113	795.834113	1356.483032	-332.338619	774.974755	1395.866582	-156.485707	746.698119	1243.215754	-189.638441	615.079118	1084.034606	91.687796	777.169009	900.775043	-39.044942	677.685263	1131.755175	-476.553948	790.492526	888.660344	-411.084045	205.825646	1228.563860	-237.090862	388.140206	1207.110009	-365.006004	347.813404	1197.399324	-53.422955	385.899910	1146.603714	-327.343426	374.071778	1150.273082	-82.852742	239.988808	1260.940105	-180.570819	249.495406	1267.968909	-276.497240	259.338707	1106.841968	-36.431576	314.428882	1097.584929	-413.573403	353.822543	958.417048	-24.835516	418.366508	897.446235	-23.256397	444.520338	815.129043	-33.412220	449.734057	916.992686	-26.808997	504.737014	708.971494	-47.738917	500.032928	710.086788	-169.337855	429.467815	599.143510	-23.664186	417.405108	511.859414	-44.656546	363.818240	444.916165	-53.124206	445.304627	506.208905	-73.066329	308.383762	339.454931	-65.023006	NaN	NaN	NaN	226.677250	309.793326	-113.233229	524.880361	306.835023	-95.558092	432.940252	270.994372	-35.306726	381.100162	982.637766	-411.906878	442.229607	920.613019	-402.519316	469.082190	936.459827	-383.678540	466.378867	835.159380	-408.037578	487.144149	710.504766	-397.293126	468.727317	686.079998	-288.255690	124.320386	501.228612	-401.667617	157.550278	487.218727	-317.517342	74.851313	539.674865	-358.866121	124.422964	330.639491	-416.519228	383.374608	639.068800	-422.967191	320.673341	581.655922	-405.838459	235.220146	556.148455	-406.519551	333.201300	563.443291	-370.569545	190.613693	274.375239	-347.194081	-199.053973	920.977950	-222.854041	-7.525517	83.366493	-426.315244	-10.412184	80.112140	-28.066842	
503	2.5150	797.383271	1311.735368	0.678192	793.973381	1357.898376	-335.599606	774.784075	1397.452549	-159.017353	747.935205	1244.321983	-191.482050	620.225375	1085.869069	94.598871	777.540514	900.199766	-38.545192	676.146497	1131.436379	-477.516464	790.443705	888.722770	-411.206307	205.541841	1225.073747	-234.287221	387.152649	1206.833600	-364.116431	349.753561	1191.981506	-52.721440	385.601029	1145.808608	-326.991575	375.609989	1145.728983	-82.998996	240.153999	1256.958428	-177.738569	248.683704	1265.399755	-273.476124	260.570107	1100.365491	-36.163843	314.171055	1097.039234	-413.462124	353.577163	951.366769	-25.607497	417.313150	889.183132	-24.623436	444.379057	807.626178	-33.577097	448.889899	908.536895	-28.034909	500.999718	700.680335	-49.970966	495.444947	701.182215	-171.227214	425.853864	590.154059	-25.200907	414.395727	502.690437	-45.900403	360.975014	435.708695	-53.604964	442.151046	497.321055	-74.080093	305.834866	329.986119	-64.846299	NaN	NaN	NaN	223.876209	300.489458	-112.903017	521.955638	295.594112	-97.795811	430.286480	261.254606	-35.454300	382.790969	983.271146	-413.101963	445.159164	922.405850	-403.754850	471.946343	938.872549	-385.368726	471.014907	837.336033	-408.997421	494.139112	713.877222	-398.327239	475.988740	689.194064	-289.233624	128.569743	510.275906	-401.894796	161.752172	495.839595	-317.756008	79.250710	549.295998	-359.262241	127.489518	339.716286	-416.377643	389.716807	643.801912	-423.767774	326.050760	587.462392	-406.450034	238.720726	564.206005	-408.409561	338.400119	568.865981	-371.213098	193.205222	283.245929	-346.943647	-198.937626	921.044023	-222.498202	-7.487099	83.370546	-426.301334	-10.383028	80.119149	-28.053787	
504	2.5200	800.230744	1313.962983	-2.301984	792.260704	1359.482305	-339.944684	774.463427	1399.370454	-161.711273	749.421344	1245.727762	-193.546719	625.898800	1088.252989	97.367091	777.969519	899.707225	-38.077558	674.376412	1130.856234	-478.445298	790.405547	888.803798	-411.372843	205.256953	1221.655391	-231.144102	386.008882	1206.742078	-363.141021	352.106129	1186.590357	-51.842991	385.210036	1145.102803	-326.613359	377.250213	1141.180485	-83.179316	240.503499	1252.618599	-174.654500	247.839450	1262.793374	-270.023497	261.880907	1093.848229	-35.942705	313.197923	1096.222814	-412.150885	353.407247	944.372832	-26.404647	416.138763	881.175054	-25.921670	440.189731	798.808988	-36.229806	447.971378	900.052284	-29.288773	496.707622	692.308441	-52.301052	490.634004	692.392802	-173.162231	421.934493	581.276793	-26.739471	410.936648	493.721389	-46.943331	357.804342	426.557165	-54.148681	438.489709	487.740467	-76.064860	302.868217	320.544685	-64.536265	NaN	NaN	NaN	220.598664	291.185335	-112.294652	518.764750	285.730848	-98.168980	427.110110	251.709077	-35.587782	384.617582	984.470766	-415.071166	447.773448	924.231470	-404.697140	474.599226	941.603202	-387.414238	475.584762	840.003456	-410.364357	500.923311	717.540379	-399.230686	483.109878	692.705746	-290.197298	133.341802	519.187850	-402.082571	166.253316	504.360469	-317.795765	83.986460	558.558063	-359.348199	130.830852	349.109221	-416.206390	396.094285	648.618744	-424.389960	331.506807	593.416041	-406.823207	243.845823	571.466930	-408.654799	343.730151	574.512042	-371.783404	196.395869	291.983107	-346.620747	-198.912794	921.031388	-222.460126	-7.467363	83.420098	-426.306065	-10.348478	80.126133	-28.014333	
